# xmcd
#
# Track frame offsets: 
#        150
#        14546
#        28504
#        40416
#        52364
#        66577
#        81116
#        97866
#        110195
#        125981
#
# Disc length: 1882 seconds
#
# Revision: 0
# Processed by: cddbd v1.5.2PL0 Copyright (c) Steve Scherf et al.
# Submitted via: ExactAudioCopy v0.99pb5
#
DISCID=9507580a
DTITLE=Linda Draper - No Frills
DYEAR=2010
DGENRE=Country
TTITLE0=As The Story Goes
TTITLE1=Airplane
TTITLE2=La Lalala La
TTITLE3=Dear Anonymous
TTITLE4=The One
TTITLE5=The Priest Who Looked Like Elvis
TTITLE6=Colorblind
TTITLE7=The Sleeping Giant
TTITLE8=A Little Bit Goes
TTITLE9=Here I Am
EXTD=
EXTT0=
EXTT1=
EXTT2=
EXTT3=
EXTT4=
EXTT5=
EXTT6=
EXTT7=
EXTT8=
EXTT9=
PLAYORDER=
